<svg width="128" height="128" version="1.1" viewBox="0 0 33.867 33.867" xmlns="http://www.w3.org/2000/svg">
  <rect width="33.867" height="33.867" ry="5.9986" fill="#fff" stroke="#666" stroke-linecap="square" stroke-width=".66949" style="paint-order:markers stroke fill"/>
  <g>
    <g stroke-width=".18411">
      <path d="m3.7048 30.162v-26.458h3.2189v26.458z"/>
      <path d="m9.7228 30.162v-26.458h3.2189v26.458z"/>
      <path d="m15.741 30.162v-26.458h3.2189v26.458z"/>
    </g>
    <path d="m29.951 30.162q-3.431-0.36287-5.0227-2.5732-1.5917-2.2103-1.5917-5.5425 0-2.3093-0.53055-3.266-0.53055-0.98972-1.91-1.2536v-1.1217q1.3794-0.26392 1.91-1.2536 0.53055-0.98972 0.53055-3.299 0-3.365 1.5917-5.5755 1.5917-2.2103 5.0227-2.5732l0.21222 1.3196q-1.6624 0.3629-2.4759 2.2103-0.81352 1.8474-0.81352 4.6187 0 2.3423-0.91962 3.563-0.91962 1.1876-2.582 1.5176 1.6624 0.3299 2.582 1.5175 0.91962 1.1877 0.91962 3.596 0 2.7382 0.81352 4.5857 0.81352 1.8475 2.4759 2.2103z" stroke-width=".17791"/>
  </g>
</svg>
