<svg width="200" height="32" version="1.1" viewBox="0 0 52.917 8.4667" xmlns="http://www.w3.org/2000/svg">
  <path d="m8.3989 8.4667q-1.0979-0.11612-1.6073-0.82344-0.50933-0.70731-0.50933-1.7736 0-0.73899-0.16978-1.0451-0.16978-0.31671-0.6112-0.40116v-0.35893q0.44142-0.084456 0.6112-0.40116 0.16978-0.31671 0.16978-1.0557 0-1.0768 0.50933-1.7842 0.50933-0.70731 1.6073-0.82344l0.067911 0.42228q-0.53197 0.11613-0.7923 0.70731t-0.26033 1.478q0 0.74955-0.29428 1.1402-0.29428 0.38005-0.82624 0.48562 0.53197 0.10557 0.82624 0.48561 0.29428 0.38005 0.29428 1.1507 0 0.87624 0.26033 1.4674 0.26033 0.59119 0.7923 0.70731z" stroke-width=".056933"/>
  <g stroke-width=".059983">
    <path d="m9.5929 8.1383 0.19229-0.05864q0.27147-0.04696 0.35065-0.21107 0.09049-0.17589 0.09049-0.5863v-2.9784q0-0.12898-0.04525-0.17589-0.04524-0.058637-0.15836-0.058637h-0.44113l-0.1018-0.28142q0.29409-0.28142 0.67867-0.45731t0.67867-0.17589q0.14705 0 0.23753 0.093811 0.09049 0.093803 0.09049 0.23452v1.1609h0.05656q0.18098-0.7153 0.54293-1.1491 0.37327-0.43386 0.80308-0.43386 0.42982 0 0.70129 0.29314 0.28278 0.28142 0.28278 0.78565 0 0.39869-0.28278 0.66839t-0.7126 0.2697q-0.2036 0-0.2036-0.10553 0-0.035198 0.07918-0.16417 0.07918-0.12899 0.13574-0.25797 0.05656-0.12899 0.05656-0.30488 0-0.19935-0.09049-0.30488-0.09049-0.11726-0.23753-0.11726-0.23753 0-0.49769 0.30487-0.26015 0.30488-0.45245 0.97323-0.18098 0.6684-0.18098 1.7003 0 0.48077 0.06787 0.78565 0.07918 0.29315 0.26015 0.55112l0.12442 0.16417-0.12442 0.16417h-1.7985z"/>
    <path d="m16.514 8.4667q-1.1537 0-1.8324-0.75046-0.67867-0.7622-0.67867-2.0404t0.67867-2.0169q0.67867-0.75047 1.8324-0.75047 0.75785 0 1.3234 0.34006 0.56555 0.34005 0.87099 0.96155 0.3054 0.62147 0.3054 1.4658 0 0.84427-0.31671 1.4775-0.3054 0.63321-0.87099 0.97323-0.56555 0.34005-1.3121 0.34005zm-0.02262-0.57458q0.64473 0 1.0407-0.59803 0.4072-0.60976 0.4072-1.5947 0-0.50423-0.13574-1.0084-0.13574-0.51594-0.45245-0.86771-0.3054-0.36351-0.80308-0.36351-0.66736 0-1.0746 0.60975-0.39589 0.60975-0.39589 1.6182 0 1.0084 0.37327 1.6065 0.38458 0.59803 1.0407 0.59803z"/>
    <path d="m24.704 8.4666q-0.41851 0-0.59949-0.25798-0.18098-0.2697-0.18098-0.86771v-2.5328q0-0.5394-0.22622-0.80908-0.22622-0.28142-0.66736-0.28142t-0.78047 0.36351q-0.32802 0.36351-0.509 1.0202-0.18098 0.65667-0.18098 1.5126 0 0.4925 0.06787 0.79737 0.07918 0.30489 0.26015 0.57458l0.12442 0.16417-0.12442 0.16417h-1.7985l-0.1018-0.32833 0.19229-0.05864q0.27147-0.046958 0.35064-0.21106 0.09049-0.17589 0.09049-0.58631v-2.9784q0-0.12899-0.04524-0.17589-0.04525-0.058637-0.15836-0.058637h-0.44114l-0.1018-0.28142q0.29409-0.28142 0.67867-0.45732 0.38458-0.17589 0.67867-0.17589 0.14705 0 0.23753 0.093811 0.09049 0.093803 0.09049 0.23452v1.1609q0.26015-0.69184 0.79178-1.1375 0.53162-0.44559 1.1198-0.44559 0.7126 0 1.0407 0.45732 0.33933 0.45732 0.33933 1.4423v2.568q0 0.36352 0.3054 0.36352 0.24884 0 0.509-0.2228l0.19229 0.2697q-0.26015 0.30488-0.57686 0.49249-0.31671 0.18762-0.57686 0.18762z"/>
    <path d="m29.014 8.4667q-1.1537 0-1.8324-0.75046-0.67867-0.7622-0.67867-2.0404t0.67867-2.0169q0.67867-0.75047 1.8324-0.75047 0.75785 0 1.3234 0.34006 0.56555 0.34005 0.87099 0.96155 0.3054 0.62147 0.3054 1.4658 0 0.84427-0.31671 1.4775-0.3054 0.63321-0.87099 0.97323-0.56555 0.34005-1.3121 0.34005zm-0.02262-0.57458q0.64473 0 1.0407-0.59803 0.4072-0.60976 0.4072-1.5947 0-0.50423-0.13574-1.0084-0.13574-0.51594-0.45245-0.86771-0.3054-0.36351-0.80308-0.36351-0.66736 0-1.0746 0.60975-0.39589 0.60975-0.39589 1.6182 0 1.0084 0.37327 1.6065 0.38458 0.59803 1.0407 0.59803z"/>
    <path d="m34.703 8.4667q-0.53162 0-0.85963-0.21108-0.31671-0.21106-0.509-0.66838-0.18098-0.46905-0.29409-1.3016l-0.33933-2.228q-0.02262-0.15244-0.05656-0.19933-0.03393-0.058637-0.13574-0.058637h-0.44113l-0.1018-0.25798q0.27146-0.2697 0.63342-0.44558 0.37327-0.18762 0.65604-0.18762t0.33933 0.31661l0.45245 3.3419q0.09049 0.6332 0.27146 0.92635 0.18098 0.28142 0.52032 0.28142 0.63342 0 0.96147-0.75047 0.32802-0.75046 0.32802-1.8293 0-0.50422-0.12442-0.98499-0.11311-0.4925-0.33933-0.86771l-0.09049-0.16418 0.11311-0.12898 1.2329-0.14072q0.04525 0.75047 0.04525 1.1257 0 1.4071-0.31671 2.4156-0.3054 0.99675-0.82572 1.5126-0.509 0.50422-1.1198 0.50422z"/>
    <path d="m39.928 8.4667q-0.49769 0-0.92755-0.29316-0.41851-0.30487-0.67867-0.87947-0.24884-0.5863-0.24884-1.4189 0-1.3719 0.7126-2.1693 0.72391-0.79737 1.9455-0.79737 0.4072 0 1.1085 0.12899 0.52032 0.093803 0.93883 0.12898l0.13574 0.12899-0.14705 0.19934q-0.07918 0.14071-0.11311 0.2228-0.02262 0.070316-0.02262 0.19934v3.4592q0 0.32834 0.32802 0.32834 0.24884 0 0.509-0.18762l0.19229 0.2697q-0.27147 0.31661-0.57686 0.50422-0.3054 0.1759-0.55424 0.1759-0.42982 0-0.62211-0.25798-0.19229-0.2697-0.19229-0.86771-0.4072 0.62148-0.84836 0.87947-0.42982 0.24625-0.93883 0.24625zm0.39589-0.83252q0.85963 0 1.3913-0.96155v-2.8729q-0.44114-0.30488-0.99539-0.30488-0.73522 0-1.1537 0.57458-0.4072 0.56286-0.4072 1.6065 0 1.0084 0.32802 1.4892 0.33933 0.46905 0.837 0.46905z"/>
  </g>
  <path d="m45.595 8.4667q-0.42985 0-0.62214-0.25799-0.18099-0.26971-0.18099-0.86776v-6.1917q0-0.129-0.04524-0.1759-0.04525-0.05864-0.15837-0.05864h-0.44117l-0.10181-0.26971q0.2941-0.28143 0.6787-0.45734 0.3846-0.18762 0.69002-0.18762 0.14706 0 0.23754 0.093808 0.09049 0.093816 0.09049 0.24626l-0.02262 7.036q0 0.1759 0.07918 0.26972 0.07918 0.093816 0.22623 0.093816 0.28279 0 0.50903-0.22281l0.20361 0.26971q-0.26016 0.3049-0.57689 0.49252-0.31673 0.18763-0.56558 0.18763z" stroke-width=".059986"/>
  <path d="m49.184 8.4667q-0.49771 0-0.92759-0.29317-0.41853-0.30489-0.6787-0.87951-0.24886-0.58633-0.24886-1.4189 0-1.372 0.71264-2.1694 0.72395-0.79741 1.9456-0.79741 0.59952 0 0.97279 0.129v-1.888q0-0.129-0.04528-0.1759-0.04528-0.05864-0.14706-0.05864h-0.45247l-0.09049-0.26971q0.28279-0.28143 0.66739-0.45733 0.3846-0.18762 0.66739-0.18762 0.14706 0 0.23754 0.093807 0.09049 0.093815 0.09049 0.24626v7.0359q0 0.32836 0.32804 0.32836 0.24886 0 0.50903-0.18763l0.19229 0.26971q-0.27148 0.31662-0.57689 0.50424-0.30541 0.1759-0.55428 0.1759-0.42984 0-0.62214-0.25799-0.1923-0.26971-0.1923-0.86775-0.40721 0.62151-0.84839 0.87951-0.42984 0.24626-0.93887 0.24626zm0.39591-0.83255q0.85967 0 1.3914-0.96159v-2.873q-0.44115-0.30489-0.99543-0.30489-0.73526 0-1.1538 0.5746-0.40722 0.56288-0.40722 1.6065 0 1.0085 0.32804 1.4893 0.33936 0.46907 0.83703 0.46907z" stroke-width=".059986"/>
  <g stroke-width=".058915">
    <path d="m0 8.4667v-8.4667h1.03v8.4667z"/>
    <path d="m1.9258 8.4667v-8.4667h1.03v8.4667z"/>
    <path d="m3.8515 8.4667v-8.4667h1.03v8.4667z"/>
  </g>
</svg>
