<svg width="32" height="32" fill="currentColor" version="1.1" viewBox="0 0 8.4667 8.4667" xmlns="http://www.w3.org/2000/svg">
  <g transform="translate(-39.107 -229.58)" fill="#000">
    <g stroke-width=".058915">
      <path d="m39.107 238.05v-8.4667h1.03v8.4667z"/>
      <path d="m41.032 238.05v-8.4667h1.03v8.4667z"/>
      <path d="m42.958 238.05v-8.4667h1.03v8.4667z"/>
    </g>
    <path d="m47.505 238.05q-1.0979-0.11612-1.6073-0.82344-0.50934-0.70731-0.50934-1.7736 0-0.73899-0.16978-1.0451-0.16978-0.31671-0.6112-0.40116v-0.35893q0.44142-0.0845 0.6112-0.40116 0.16978-0.31671 0.16978-1.0557 0-1.0768 0.50934-1.7842 0.50934-0.70731 1.6073-0.82344l0.06791 0.42228q-0.53198 0.11613-0.7923 0.70731-0.26033 0.59118-0.26033 1.478 0 0.74955-0.29428 1.1402-0.29428 0.38005-0.82624 0.48562 0.53198 0.10557 0.82624 0.48561 0.29428 0.38005 0.29428 1.1507 0 0.87624 0.26033 1.4674 0.26033 0.59119 0.7923 0.70731z" stroke-width=".056932"/>
  </g>
</svg>
